<?xml version="1.0" encoding="UTF-8" standalone="no"?>
<!-- Created with Inkscape (http://www.inkscape.org/) -->

<svg
   width="100"
   height="100"
   viewBox="0 0 1000 1000"
   version="1.1"
   id="svg1"
   inkscape:version="1.3.1 (9b9bdc1480, 2023-11-25, custom)"
   sodipodi:docname="horizon_circle.svg"
   xmlns:inkscape="http://www.inkscape.org/namespaces/inkscape"
   xmlns:sodipodi="http://sodipodi.sourceforge.net/DTD/sodipodi-0.dtd"
   xmlns="http://www.w3.org/2000/svg"
   xmlns:svg="http://www.w3.org/2000/svg">
  <sodipodi:namedview
     id="namedview1"
     pagecolor="#ffffff"
     bordercolor="#666666"
     borderopacity="1.0"
     inkscape:showpageshadow="2"
     inkscape:pageopacity="0.0"
     inkscape:pagecheckerboard="0"
     inkscape:deskcolor="#d1d1d1"
     inkscape:document-units="px"
     inkscape:zoom="90.509668"
     inkscape:cx="50.585756"
     inkscape:cy="51.071892"
     inkscape:window-width="1329"
     inkscape:window-height="1136"
     inkscape:window-x="591"
     inkscape:window-y="27"
     inkscape:window-maximized="0"
     inkscape:current-layer="layer1"
     showgrid="true">
    <inkscape:grid
       id="grid35"
       units="px"
       originx="0"
       originy="0"
       spacingx="10"
       spacingy="10"
       empcolor="#0099e5"
       empopacity="0.30196078"
       color="#0099e5"
       opacity="0.14901961"
       empspacing="5"
       dotted="false"
       gridanglex="30"
       gridanglez="30"
       visible="true" />
  </sodipodi:namedview>
  <defs
     id="defs1" />
  <g
     inkscape:label="Layer 1"
     inkscape:groupmode="layer"
     id="layer1">
    <path
       id="rect5"
       style="fill:#000004;stroke-width:0"
       d="m 430,620 h 140 l 90,130 -320,0 z"
       sodipodi:nodetypes="ccccc" />
    <circle
       style="fill:none;stroke:#000000;stroke-width:50;stroke-dasharray:none"
       id="path1"
       cx="500"
       cy="500"
       r="450" />
    <path
       d="m 499.97487,924.9613 a 425,424.99912 0 0 0 425,-425 425,424.99912 0 0 0 0,-0.0391 h -77.05078 a 347.95321,347.9525 0 0 1 0,0.0391 347.95321,347.9525 0 0 1 -347.94922,347.94922 347.95321,347.9525 0 0 1 -347.94922,-347.94922 347.95321,347.9525 0 0 1 0,-0.0391 H 74.974873 a 425,424.99912 0 0 0 0,0.0391 425,424.99912 0 0 0 424.999997,425 z"
       style="fill:#00b400;stroke-width:0"
       id="path3"
       inkscape:transform-center-x="-0.012563431"
       inkscape:transform-center-y="-212.4611" />
    <path
       d="m 500,75 a 425,424.99912 0 0 0 -425,425 425,424.99912 0 0 0 0,0.0391 h 77.05078 a 347.95321,347.9525 0 0 1 0,-0.0391 A 347.95321,347.9525 0 0 1 500,152.05078 347.95321,347.9525 0 0 1 847.94922,500 a 347.95321,347.9525 0 0 1 0,0.0391 H 925 A 425,424.99912 0 0 0 925,500 425,424.99912 0 0 0 500,75 Z"
       style="fill:#7ce0fc;stroke-width:0"
       id="path2"
       inkscape:transform-center-x="-0.012563431"
       inkscape:transform-center-y="-212.4611" />
    <rect
       style="fill:#ffffff;stroke:none;stroke-width:0;stroke-dasharray:none"
       id="rect68"
       width="50"
       height="10"
       x="230.91577"
       y="-303.8504"
       transform="matrix(0.342013,0.93969522,-0.9396943,0.34201553,0,0)"
       inkscape:transform-center-x="0.038945042"
       inkscape:transform-center-y="-384.91244" />
    <rect
       style="fill:#ffffff;stroke:none;stroke-width:0;stroke-dasharray:none"
       id="rect69"
       width="50"
       height="10"
       x="169.27835"
       y="-410.58807"
       transform="matrix(0.17364069,0.98480907,-0.98480861,0.17364335,0,0)"
       inkscape:transform-center-x="0.038945042"
       inkscape:transform-center-y="-384.91244" />
    <rect
       style="fill:#ffffff;stroke:none;stroke-width:0;stroke-dasharray:none"
       id="rect70"
       width="50"
       height="10"
       x="-4.3842149"
       y="-584.22015"
       transform="matrix(-0.17365567,0.98480643,-0.9848069,-0.17365301,0,0)"
       inkscape:transform-center-x="0.038945042"
       inkscape:transform-center-y="-384.91244" />
    <rect
       style="fill:#ffffff;stroke:none;stroke-width:0;stroke-dasharray:none"
       id="rect71"
       width="50"
       height="10"
       x="-111.13271"
       y="-645.83881"
       transform="matrix(-0.34202729,0.93969002,-0.93969094,-0.34202475,0,0)"
       inkscape:transform-center-x="0.038945042"
       inkscape:transform-center-y="-384.91244" />
    <rect
       style="fill:#ffffff;stroke:none;stroke-width:0;stroke-dasharray:none"
       id="rect72"
       width="62.190483"
       height="20"
       x="90.041893"
       y="-509.99652"
       transform="rotate(90.00035)"
       inkscape:transform-center-x="-378.88558"
       inkscape:transform-center-y="-0.023450931" />
    <rect
       style="fill:#ffffff;stroke:none;stroke-width:0;stroke-dasharray:none"
       id="rect56"
       width="62.190483"
       height="20"
       x="-910.00311"
       y="-509.99695"
       transform="rotate(-179.99965)"
       inkscape:transform-center-x="-378.88558"
       inkscape:transform-center-y="-0.023450931" />
    <rect
       style="fill:#ffffff;stroke:none;stroke-width:0;stroke-dasharray:none"
       id="rect57"
       width="62.190483"
       height="20"
       x="273.0618"
       y="-192.99419"
       transform="rotate(60)"
       inkscape:transform-center-x="-378.88558"
       inkscape:transform-center-y="-0.023450931" />
    <rect
       style="fill:#ffffff;stroke:none;stroke-width:0;stroke-dasharray:none"
       id="rect58"
       width="62.190483"
       height="20"
       x="273.06027"
       y="173.04684"
       transform="rotate(30)"
       inkscape:transform-center-x="-378.88558"
       inkscape:transform-center-y="-0.023450931" />
    <rect
       style="fill:#ffffff;stroke:none;stroke-width:0;stroke-dasharray:none"
       id="rect51"
       width="62.190483"
       height="20"
       x="90.038422"
       y="490.04691"
       inkscape:transform-center-x="378.88558"
       inkscape:transform-center-y="0.023454587" />
    <rect
       style="fill:#ffffff;stroke:none;stroke-width:0;stroke-dasharray:none"
       id="rect52"
       width="62.190483"
       height="20"
       x="-592.99847"
       y="-693.01917"
       transform="rotate(150)"
       inkscape:transform-center-x="-378.88558"
       inkscape:transform-center-y="-0.023450931" />
    <rect
       style="fill:#ffffff;stroke:none;stroke-width:0;stroke-dasharray:none"
       id="rect53"
       width="62.190483"
       height="20"
       x="-226.95743"
       y="-693.01764"
       transform="rotate(120)"
       inkscape:transform-center-x="-378.88558"
       inkscape:transform-center-y="-0.023450931" />
    <circle
       style="fill:none;stroke:#000000;stroke-width:50;stroke-dasharray:none"
       id="path1-8"
       cx="1975"
       cy="675"
       r="450" />
    <path
       d="m 1975,250 a 425,424.99912 0 0 0 -425,425 425,424.99912 0 0 0 425,425 425,424.99912 0 0 0 425,-425 425,424.99912 0 0 0 -425,-425 z m 0,77.04679 A 347.95321,347.9525 0 0 1 2322.9532,675 347.95321,347.9525 0 0 1 1975,1022.9532 347.95321,347.9525 0 0 1 1627.0468,675 347.95321,347.9525 0 0 1 1975,327.04679 Z"
       style="fill:#808080;stroke:none;stroke-width:0;stroke-dasharray:none"
       id="path2-1-7" />
    <rect
       style="fill:#b3b3b3;stroke:none;stroke-width:0;stroke-dasharray:none"
       id="rect56-1"
       width="62.190483"
       height="20"
       x="-2385.0042"
       y="-684.98792"
       transform="rotate(-179.99965)"
       inkscape:transform-center-x="-378.88558"
       inkscape:transform-center-y="-0.023450931" />
    <rect
       style="fill:#b3b3b3;stroke:none;stroke-width:0;stroke-dasharray:none"
       id="rect57-7"
       width="62.190483"
       height="20"
       x="1162.1162"
       y="-1382.8817"
       transform="rotate(60)"
       inkscape:transform-center-x="-378.88558"
       inkscape:transform-center-y="-0.023450931" />
    <rect
       style="fill:#b3b3b3;stroke:none;stroke-width:0;stroke-dasharray:none"
       id="rect58-2"
       width="62.190483"
       height="20"
       x="1637.9478"
       y="-412.89871"
       transform="rotate(30)"
       inkscape:transform-center-x="-378.88558"
       inkscape:transform-center-y="-0.023450931" />
    <rect
       style="fill:#b3b3b3;stroke:none;stroke-width:0;stroke-dasharray:none"
       id="rect51-7"
       width="62.190483"
       height="20"
       x="1565.0385"
       y="665.04688"
       inkscape:transform-center-x="378.88558"
       inkscape:transform-center-y="0.023454587" />
    <rect
       style="fill:#b3b3b3;stroke:none;stroke-width:0;stroke-dasharray:none"
       id="rect52-2"
       width="62.190483"
       height="20"
       x="-1782.886"
       y="-1582.0736"
       transform="rotate(150)"
       inkscape:transform-center-x="-378.88558"
       inkscape:transform-center-y="-0.023450931" />
    <rect
       style="fill:#b3b3b3;stroke:none;stroke-width:0;stroke-dasharray:none"
       id="rect53-2"
       width="62.190483"
       height="20"
       x="-812.90302"
       y="-2057.905"
       transform="rotate(120)"
       inkscape:transform-center-x="-378.88558"
       inkscape:transform-center-y="-0.023450931" />
    <rect
       style="fill:#b3b3b3;stroke:none;stroke-width:0;stroke-dasharray:none"
       id="rect54-6"
       width="62.190483"
       height="20"
       x="265.04263"
       y="-1984.9958"
       transform="rotate(90)"
       inkscape:transform-center-x="-378.88558"
       inkscape:transform-center-y="-0.023450931" />
    <path
       d="M 843.64016,750 H 156.30959 C 236.01469,859.57776 364.50086,924.54306 500,924.9613 635.49913,924.54306 763.93505,859.57776 843.64016,750 Z"
       style="fill:#000064;stroke-width:0"
       id="path5"
       sodipodi:nodetypes="cccc" />
    <circle
       style="fill:#3e3e3e;stroke-width:0"
       id="path6"
       cx="500"
       cy="880"
       r="80" />
    <rect
       style="fill:#3e3e3e;stroke-width:0"
       id="rect6"
       width="40"
       height="50.000027"
       x="480"
       y="570" />
    <path
       id="rect6-7"
       style="fill:#3e3e3e;stroke-width:0"
       d="m 500,500 20,50.00003 h -40 z"
       sodipodi:nodetypes="cccc" />
    <rect
       style="fill:#2a2a2a;stroke-width:0"
       id="rect6-2"
       width="40"
       height="20.000042"
       x="480"
       y="550" />
    <circle
       style="fill:#cc0000;stroke-width:0"
       id="path7"
       cx="500"
       cy="500"
       r="15" />
  </g>
</svg>
